<?xml version="1.0" standalone="no"?><!DOCTYPE svg PUBLIC "-//W3C//DTD SVG 1.1//EN" "http://www.w3.org/Graphics/SVG/1.1/DTD/svg11.dtd"><svg width="200" height="200" viewBox="0 0 200 200" version="1.1" xmlns="http://www.w3.org/2000/svg" xmlns:xlink="http://www.w3.org/1999/xlink"><defs><style type="text/css"><![CDATA[
@font-face { font-family: ifont; src: url("//at.alicdn.com/t/font_1442373896_4754455.eot?#iefix") format("embedded-opentype"), url("//at.alicdn.com/t/font_1442373896_4754455.woff") format("woff"), url("//at.alicdn.com/t/font_1442373896_4754455.ttf") format("truetype"), url("//at.alicdn.com/t/font_1442373896_4754455.svg#ifont") format("svg"); }

]]></style></defs><g class="transform-group"><g transform="scale(0.1953125, 0.1953125)"><path d="M835.660494 97.992825c0-17.872043-14.488992-32.366152-32.400944-32.366152L195.568141 65.626673c-17.878183 0-32.400944 14.494109-32.400944 32.366152l0 777.700431c0 17.878183 14.494109 32.372292 32.400944 32.372292l32.525788 0L228.093928 162.92058l0.034792 0c0-17.873066 14.487969-32.367175 32.395828-32.367175l575.135946 0L835.660494 97.992825zM828.544423 195.259102 323.678914 195.259102c-17.400299 0-31.637558 14.237259-31.637558 31.641651l0 714.164373c0 17.400299 10.346649 21.864984 22.99983 9.901511l238.069117-224.772276c12.654204-11.964496 33.347502-11.964496 46.006823 0L837.181127 950.965613c12.654204 11.964496 22.99983 7.469112 22.99983-9.901511L860.180957 226.900753C860.180957 209.495338 845.943698 195.259102 828.544423 195.259102z" fill="#272636"></path></g></g></svg>